<svg width="500" height="500" viewBox="0 0 500 500" fill="none" xmlns="http://www.w3.org/2000/svg">
<circle cx="250" cy="250" r="250" fill="url(#paint0_linear_1_9)"/>
<path d="M328.709 101C313.928 101.017 299.757 106.895 289.305 117.345C278.854 127.794 272.974 141.963 272.958 156.741V193.9H226.5V156.741C226.425 142.007 220.518 127.903 210.071 117.511C199.624 107.119 185.487 101.286 170.75 101.286C156.014 101.286 141.876 107.119 131.429 117.511C120.983 127.903 115.076 142.007 115 156.741V342.545C115.076 357.279 120.983 371.382 131.429 381.774C141.876 392.166 156.014 398 170.75 398C185.487 398 199.624 392.166 210.071 381.774C220.518 371.382 226.425 357.279 226.5 342.545V323.964L207.917 314.674V342.545C207.917 349.895 205.737 357.079 201.653 363.19C197.569 369.302 191.764 374.064 184.972 376.877C178.181 379.689 170.708 380.425 163.498 378.992C156.288 377.557 149.666 374.018 144.468 368.821C139.27 363.624 135.73 357.002 134.296 349.794C132.862 342.584 133.598 335.113 136.412 328.322C139.225 321.533 143.989 315.728 150.102 311.645C156.214 307.563 163.4 305.383 170.751 305.383H328.709C336.06 305.383 343.246 307.563 349.357 311.647C355.47 315.73 360.234 321.533 363.047 328.324C365.86 335.114 366.597 342.586 365.162 349.794C363.728 357.003 360.188 363.624 354.99 368.821C349.792 374.018 343.17 377.558 335.959 378.992C328.75 380.425 321.277 379.689 314.485 376.877C307.694 374.064 301.889 369.302 297.805 363.19C293.722 357.079 291.542 349.895 291.542 342.545V323.964L272.958 314.674V342.545C273.034 357.279 278.94 371.382 289.388 381.774C299.835 392.166 313.972 398 328.708 398C343.444 398 357.582 392.166 368.029 381.774C378.476 371.382 384.382 357.279 384.458 342.545V156.741C384.442 141.963 378.563 127.795 368.111 117.345C357.661 106.895 343.489 101.017 328.709 101ZM291.542 156.741C291.542 149.391 293.721 142.206 297.805 136.095C301.889 129.984 307.693 125.221 314.485 122.408C321.276 119.595 328.749 118.859 335.959 120.293C343.169 121.726 349.791 125.265 354.99 130.462C360.188 135.659 363.728 142.281 365.162 149.489C366.597 156.698 365.86 164.17 363.047 170.96C360.234 177.75 355.47 183.554 349.359 187.637C343.246 191.721 336.06 193.9 328.709 193.9H291.542V156.741ZM170.751 119.58C180.605 119.592 190.051 123.511 197.019 130.477C203.986 137.444 207.905 146.889 207.917 156.741V193.9H170.751C165.851 193.931 160.992 192.993 156.456 191.139C151.92 189.285 147.795 186.553 144.319 183.099C140.843 179.646 138.084 175.539 136.202 171.015C134.32 166.491 133.35 161.64 133.35 156.74C133.35 151.841 134.32 146.989 136.202 142.466C138.084 137.942 140.843 133.835 144.319 130.381C147.795 126.928 151.92 124.195 156.456 122.342C160.992 120.488 165.851 119.55 170.751 119.58ZM328.709 286.8H170.751C157.029 286.788 143.789 291.857 133.584 301.028V198.252C143.789 207.423 157.029 212.491 170.751 212.479H328.709C342.431 212.491 355.671 207.423 365.875 198.252V301.028C355.671 291.857 342.431 286.788 328.709 286.8Z" fill="white"/>
<defs>
<linearGradient id="paint0_linear_1_9" x1="250" y1="0" x2="250" y2="500" gradientUnits="userSpaceOnUse">
<stop stop-color="#3821C9"/>
<stop offset="1" stop-color="#521CA9"/>
</linearGradient>
</defs>
</svg>
